<svg xmlns="http://www.w3.org/2000/svg" xmlns:xlink="http://www.w3.org/1999/xlink" width="500" zoomAndPan="magnify" viewBox="0 0 375 374.999991" height="500" preserveAspectRatio="xMidYMid meet" version="1.0"><defs><g/><clipPath id="ca0c345bdc"><path d="M 193 155 L 244 155 L 244 207.261719 L 193 207.261719 Z M 193 155 " clip-rule="nonzero"/></clipPath><clipPath id="cab22142d1"><path d="M 138 155 L 189 155 L 189 207.261719 L 138 207.261719 Z M 138 155 " clip-rule="nonzero"/></clipPath><clipPath id="477af3fa29"><rect x="0" width="129" y="0" height="40"/></clipPath></defs><path fill="#00b5ab" d="M 229.089844 147.84375 C 228.328125 145.035156 230.707031 143.878906 232.722656 141.40625 C 237.328125 135.730469 240.472656 128.4375 237.421875 121.480469 C 229.730469 103.902344 206.601562 109.304688 201.960938 120.074219 C 200.3125 123.949219 201.109375 129.261719 203.152344 133.136719 C 201.929688 134.753906 195.949219 137.226562 201.777344 139.695312 C 202.144531 142.261719 202.96875 142.320312 204.25 142.503906 C 202.238281 145.3125 204.035156 143.695312 205.011719 145.28125 C 205.320312 146.625 204.523438 149.066406 207.546875 149.402344 C 209.589844 149.644531 210.628906 148.484375 212.765625 150.589844 C 217.554688 158.339844 198.300781 160.84375 194.730469 177.902344 C 191.25 178.238281 187.621094 177.71875 184.386719 175.734375 C 179.898438 172.988281 170.53125 163.164062 176.632812 159.011719 C 181.179688 155.898438 193.722656 159.835938 193.875 153.03125 C 193.90625 151.261719 192.503906 149.707031 192.777344 148.605469 C 193.355469 146.136719 196.042969 147.449219 193.355469 144.152344 C 195.890625 141.894531 193.96875 142.65625 193.144531 140.03125 C 193.019531 139.636719 193.050781 139.726562 193.019531 139.359375 C 192.898438 136.765625 197.445312 137.042969 197.261719 134.875 C 196.195312 132.800781 192.441406 129.71875 190.578125 127.886719 C 187.773438 125.109375 188.902344 125.75 188.71875 120.535156 C 188.503906 114.339844 187.40625 110.1875 184.964844 107.078125 C 184.414062 118.671875 156.128906 141.925781 152.464844 160.753906 C 152.285156 162.734375 152.375 164.75 152.773438 166.761719 L 155.914062 166.429688 C 159.636719 166.03125 163.96875 167.160156 167.417969 168.472656 C 172.058594 170.242188 176.480469 172.925781 180.234375 176.164062 C 184.507812 179.855469 187.984375 184.371094 190.183594 189.589844 C 190.609375 190.597656 190.976562 191.601562 191.28125 192.640625 C 191.585938 191.601562 191.953125 190.597656 192.378906 189.589844 C 192.929688 188.308594 193.539062 187.054688 194.242188 185.867188 C 194.484375 185.4375 194.730469 185.042969 194.972656 184.644531 C 195.035156 184.554688 195.097656 184.460938 195.15625 184.371094 C 195.402344 183.972656 195.675781 183.578125 195.949219 183.179688 C 195.949219 183.179688 195.949219 183.179688 195.980469 183.148438 C 197.78125 180.554688 199.949219 178.238281 202.359375 176.164062 C 206.113281 172.925781 210.535156 170.242188 215.175781 168.472656 C 218.625 167.160156 222.988281 166.03125 226.679688 166.429688 L 232.386719 167.007812 C 234.367188 164.382812 236.078125 161.453125 237.9375 158.371094 C 234.429688 151.476562 229.699219 150.132812 229.089844 147.84375 Z M 229.089844 147.84375 " fill-opacity="1" fill-rule="nonzero"/><g clip-path="url(#ca0c345bdc)"><path fill="#225ac6" d="M 242.699219 155.535156 C 236.167969 165.605469 232.570312 176.070312 217.890625 180.984375 C 219.019531 179.335938 221.246094 172.898438 225.976562 169.9375 C 215.875 168.898438 189.449219 181.867188 193.84375 207.59375 C 204.859375 198.070312 250.90625 183.609375 242.699219 155.535156 Z M 242.699219 155.535156 " fill-opacity="1" fill-rule="evenodd"/></g><g clip-path="url(#cab22142d1)"><path fill="#225ac6" d="M 155.855469 169.9375 C 160.582031 172.867188 162.8125 179.304688 163.941406 180.984375 C 149.261719 176.070312 145.660156 165.605469 139.132812 155.535156 C 130.953125 183.636719 177 198.070312 187.984375 207.59375 C 192.378906 181.867188 165.953125 168.898438 155.855469 169.9375 Z M 155.855469 169.9375 " fill-opacity="1" fill-rule="evenodd"/></g><path fill="#225ac6" d="M 141.207031 152.847656 C 139.496094 143.695312 142.824219 136.554688 148.46875 129.109375 L 151 129.351562 C 146.636719 134.8125 142.761719 143.601562 142.761719 149.035156 C 142.761719 154.464844 143.28125 155.625 144.226562 158.648438 C 145.785156 161.332031 147.492188 163.925781 149.355469 166.398438 L 149.996094 166.335938 C 144.808594 146.777344 182.554688 118.183594 181.457031 105.703125 C 170.316406 92.519531 124.085938 104.941406 138.550781 146.378906 C 139.527344 149.1875 139.648438 149.796875 141.207031 152.847656 Z M 143.3125 119.433594 C 145.019531 120.867188 150.511719 119.832031 151.644531 123.675781 C 151.734375 117.480469 160.09375 117.664062 162.171875 115.191406 C 163.484375 121.203125 158.660156 128.679688 152.4375 126.421875 C 155.671875 123.769531 158.386719 122.058594 158.476562 118.792969 C 157.195312 121.601562 155.121094 123.859375 151.855469 125.234375 L 151.796875 125.261719 L 151.796875 125.234375 C 149.324219 124.652344 147.613281 123.339844 146.363281 121.539062 C 146.851562 123.796875 148.925781 124.683594 151.519531 126.148438 C 147.429688 128.46875 143.128906 123.828125 143.3125 119.433594 Z M 143.3125 119.433594 " fill-opacity="1" fill-rule="evenodd"/><g transform="matrix(1, 0, 0, 1, 127, 204)"><g clip-path="url(#477af3fa29)"><g fill="#225ac6" fill-opacity="1"><g transform="translate(0.689832, 30.98273)"><g><path d="M 27.515625 -3 C 28.054688 -2.164062 28.519531 -1.507812 28.90625 -1.03125 C 29.300781 -0.5625 29.632812 -0.21875 29.90625 0 L 18.53125 0 L 12.1875 -9.953125 L 10.734375 -9.34375 L 10.734375 -3.375 C 10.734375 -2.3125 10.789062 -1.53125 10.90625 -1.03125 C 11.03125 -0.53125 11.210938 -0.1875 11.453125 0 L 0.8125 0 C 1.03125 -0.1875 1.207031 -0.53125 1.34375 -1.03125 C 1.476562 -1.53125 1.546875 -2.3125 1.546875 -3.375 L 1.546875 -25.078125 C 1.546875 -26.128906 1.476562 -26.90625 1.34375 -27.40625 C 1.207031 -27.90625 1.03125 -28.253906 0.8125 -28.453125 L 18.328125 -28.453125 C 20.441406 -28.453125 22.242188 -27.707031 23.734375 -26.21875 C 24.460938 -25.507812 25.015625 -24.6875 25.390625 -23.75 C 25.773438 -22.820312 25.96875 -21.84375 25.96875 -20.8125 L 25.96875 -15.6875 L 16.703125 -11.828125 C 17.972656 -12.203125 19.238281 -12.144531 20.5 -11.65625 C 21.757812 -11.175781 22.753906 -10.363281 23.484375 -9.21875 Z M 10.734375 -9.46875 L 16.78125 -12.03125 L 16.78125 -25.078125 C 16.78125 -25.992188 16.46875 -26.765625 15.84375 -27.390625 C 15.164062 -28.015625 14.382812 -28.328125 13.5 -28.328125 C 13.03125 -28.273438 12.625 -28.140625 12.28125 -27.921875 C 11.789062 -27.617188 11.410156 -27.207031 11.140625 -26.6875 C 10.867188 -26.175781 10.734375 -25.640625 10.734375 -25.078125 Z M 10.734375 -9.46875 "/></g></g></g><g fill="#225ac6" fill-opacity="1"><g transform="translate(28.077297, 30.98273)"><g><path d="M 26.984375 -3.8125 C 27.066406 -3.519531 27.242188 -3.285156 27.515625 -3.109375 C 27.785156 -2.929688 28.078125 -2.851562 28.390625 -2.875 C 28.703125 -2.90625 28.925781 -3.054688 29.0625 -3.328125 C 28.65625 -2.492188 28.082031 -1.804688 27.34375 -1.265625 C 26.613281 -0.722656 25.789062 -0.34375 24.875 -0.125 C 23.738281 0.09375 22.640625 0.0351562 21.578125 -0.296875 C 20.523438 -0.640625 19.601562 -1.207031 18.8125 -2 C 18.03125 -2.800781 17.488281 -3.773438 17.1875 -4.921875 L 16.828125 -6.265625 C 16.742188 -5.523438 16.539062 -4.832031 16.21875 -4.1875 C 15.507812 -2.75 14.546875 -1.644531 13.328125 -0.875 C 12.109375 -0.101562 10.800781 0.351562 9.40625 0.5 C 8.007812 0.65625 6.679688 0.492188 5.421875 0.015625 C 4.160156 -0.453125 3.101562 -1.207031 2.25 -2.25 C 1.394531 -3.289062 0.929688 -4.613281 0.859375 -6.21875 C 0.796875 -7.519531 1.066406 -8.609375 1.671875 -9.484375 C 2.285156 -10.367188 3.101562 -11.085938 4.125 -11.640625 C 5.144531 -12.203125 6.226562 -12.628906 7.375 -12.921875 C 8.53125 -13.222656 9.617188 -13.429688 10.640625 -13.546875 C 11.671875 -13.671875 12.519531 -13.742188 13.1875 -13.765625 C 13.851562 -13.796875 14.1875 -13.8125 14.1875 -13.8125 L 14.75 -13.8125 L 13.65625 -17.71875 C 13.414062 -18.664062 12.914062 -19.367188 12.15625 -19.828125 C 11.394531 -20.296875 10.570312 -20.492188 9.6875 -20.421875 C 8.8125 -20.347656 8.046875 -19.945312 7.390625 -19.21875 C 8.398438 -20.363281 9.546875 -21.195312 10.828125 -21.71875 C 12.117188 -22.25 13.429688 -22.5 14.765625 -22.46875 C 16.109375 -22.445312 17.394531 -22.148438 18.625 -21.578125 C 19.863281 -21.015625 20.9375 -20.207031 21.84375 -19.15625 C 22.75 -18.113281 23.40625 -16.863281 23.8125 -15.40625 L 25.515625 -9.21875 Z M 14.140625 -3.25 C 15.066406 -3.382812 15.757812 -3.832031 16.21875 -4.59375 C 16.726562 -5.351562 16.847656 -6.179688 16.578125 -7.078125 L 14.75 -13.703125 C 13.78125 -13.453125 12.921875 -12.96875 12.171875 -12.25 C 11.421875 -11.53125 10.859375 -10.691406 10.484375 -9.734375 C 10.109375 -8.773438 9.945312 -7.765625 10 -6.703125 C 10.050781 -5.734375 10.441406 -4.90625 11.171875 -4.21875 C 11.910156 -3.539062 12.78125 -3.203125 13.78125 -3.203125 C 13.9375 -3.203125 14.054688 -3.21875 14.140625 -3.25 Z M 14.140625 -3.25 "/></g></g></g><g fill="#225ac6" fill-opacity="1"><g transform="translate(57.943451, 30.98273)"><g><path d="M 15.328125 0 C 15.535156 -0.1875 15.707031 -0.53125 15.84375 -1.03125 C 15.976562 -1.53125 16.046875 -2.3125 16.046875 -3.375 C 16.046875 -3.375 16.046875 -3.828125 16.046875 -4.734375 C 16.046875 -5.640625 16.046875 -6.816406 16.046875 -8.265625 C 16.046875 -9.710938 16.046875 -11.25 16.046875 -12.875 C 16.046875 -14.507812 16.046875 -16.03125 16.046875 -17.4375 C 16.046875 -18 15.894531 -18.523438 15.59375 -19.015625 C 15.300781 -19.503906 14.898438 -19.882812 14.390625 -20.15625 C 13.273438 -20.726562 12.203125 -20.632812 11.171875 -19.875 L 11.140625 -19.828125 C 11.023438 -19.804688 10.890625 -19.6875 10.734375 -19.46875 L 10.734375 -3.375 C 10.734375 -2.3125 10.789062 -1.53125 10.90625 -1.03125 C 11.03125 -0.53125 11.210938 -0.1875 11.453125 0 L 0.8125 0 C 1.03125 -0.1875 1.207031 -0.53125 1.34375 -1.03125 C 1.476562 -1.53125 1.546875 -2.3125 1.546875 -3.375 L 1.546875 -25.078125 C 1.546875 -26.128906 1.476562 -26.90625 1.34375 -27.40625 C 1.207031 -27.90625 1.03125 -28.253906 0.8125 -28.453125 L 11.453125 -28.453125 C 11.210938 -28.253906 11.03125 -27.90625 10.90625 -27.40625 C 10.789062 -26.90625 10.734375 -26.128906 10.734375 -25.078125 L 10.734375 -19.671875 C 10.804688 -19.753906 10.890625 -19.84375 10.984375 -19.9375 C 11.085938 -20.03125 11.148438 -20.085938 11.171875 -20.109375 L 13.203125 -21.578125 C 14.453125 -22.523438 15.773438 -23.03125 17.171875 -23.09375 C 18.566406 -23.164062 19.875 -22.894531 21.09375 -22.28125 C 22.3125 -21.675781 23.304688 -20.789062 24.078125 -19.625 C 24.847656 -18.457031 25.234375 -17.101562 25.234375 -15.5625 L 25.234375 -3.375 C 25.234375 -2.3125 25.296875 -1.53125 25.421875 -1.03125 C 25.546875 -0.53125 25.710938 -0.1875 25.921875 0 Z M 15.328125 0 "/></g></g></g><g fill="#225ac6" fill-opacity="1"><g transform="translate(83.786814, 30.98273)"><g><path d="M 26.984375 -3.8125 C 27.066406 -3.519531 27.242188 -3.285156 27.515625 -3.109375 C 27.785156 -2.929688 28.078125 -2.851562 28.390625 -2.875 C 28.703125 -2.90625 28.925781 -3.054688 29.0625 -3.328125 C 28.65625 -2.492188 28.082031 -1.804688 27.34375 -1.265625 C 26.613281 -0.722656 25.789062 -0.34375 24.875 -0.125 C 23.738281 0.09375 22.640625 0.0351562 21.578125 -0.296875 C 20.523438 -0.640625 19.601562 -1.207031 18.8125 -2 C 18.03125 -2.800781 17.488281 -3.773438 17.1875 -4.921875 L 16.828125 -6.265625 C 16.742188 -5.523438 16.539062 -4.832031 16.21875 -4.1875 C 15.507812 -2.75 14.546875 -1.644531 13.328125 -0.875 C 12.109375 -0.101562 10.800781 0.351562 9.40625 0.5 C 8.007812 0.65625 6.679688 0.492188 5.421875 0.015625 C 4.160156 -0.453125 3.101562 -1.207031 2.25 -2.25 C 1.394531 -3.289062 0.929688 -4.613281 0.859375 -6.21875 C 0.796875 -7.519531 1.066406 -8.609375 1.671875 -9.484375 C 2.285156 -10.367188 3.101562 -11.085938 4.125 -11.640625 C 5.144531 -12.203125 6.226562 -12.628906 7.375 -12.921875 C 8.53125 -13.222656 9.617188 -13.429688 10.640625 -13.546875 C 11.671875 -13.671875 12.519531 -13.742188 13.1875 -13.765625 C 13.851562 -13.796875 14.1875 -13.8125 14.1875 -13.8125 L 14.75 -13.8125 L 13.65625 -17.71875 C 13.414062 -18.664062 12.914062 -19.367188 12.15625 -19.828125 C 11.394531 -20.296875 10.570312 -20.492188 9.6875 -20.421875 C 8.8125 -20.347656 8.046875 -19.945312 7.390625 -19.21875 C 8.398438 -20.363281 9.546875 -21.195312 10.828125 -21.71875 C 12.117188 -22.25 13.429688 -22.5 14.765625 -22.46875 C 16.109375 -22.445312 17.394531 -22.148438 18.625 -21.578125 C 19.863281 -21.015625 20.9375 -20.207031 21.84375 -19.15625 C 22.75 -18.113281 23.40625 -16.863281 23.8125 -15.40625 L 25.515625 -9.21875 Z M 14.140625 -3.25 C 15.066406 -3.382812 15.757812 -3.832031 16.21875 -4.59375 C 16.726562 -5.351562 16.847656 -6.179688 16.578125 -7.078125 L 14.75 -13.703125 C 13.78125 -13.453125 12.921875 -12.96875 12.171875 -12.25 C 11.421875 -11.53125 10.859375 -10.691406 10.484375 -9.734375 C 10.109375 -8.773438 9.945312 -7.765625 10 -6.703125 C 10.050781 -5.734375 10.441406 -4.90625 11.171875 -4.21875 C 11.910156 -3.539062 12.78125 -3.203125 13.78125 -3.203125 C 13.9375 -3.203125 14.054688 -3.21875 14.140625 -3.25 Z M 14.140625 -3.25 "/></g></g></g><g fill="#225ac6" fill-opacity="1"><g transform="translate(110.686678, 30.98273)"><g><path d="M 16.296875 -22.15625 L 16.296875 -21.984375 L 12.3125 -21.984375 L 12.3125 -1.90625 C 12.3125 -1.414062 12.539062 -1.035156 13 -0.765625 C 13.46875 -0.492188 13.863281 -0.535156 14.1875 -0.890625 C 12.988281 0.429688 11.484375 1.09375 9.671875 1.09375 C 8.535156 1.09375 7.460938 0.832031 6.453125 0.3125 C 5.453125 -0.195312 4.644531 -0.941406 4.03125 -1.921875 C 3.425781 -2.910156 3.125 -4.085938 3.125 -5.453125 L 3.125 -21.984375 L 0.8125 -21.984375 L 0.8125 -22.15625 L 3.125 -22.15625 C 4.695312 -22.15625 6.019531 -22.328125 7.09375 -22.671875 C 8.164062 -23.023438 9.046875 -23.457031 9.734375 -23.96875 C 10.421875 -24.488281 10.945312 -25.003906 11.3125 -25.515625 C 11.675781 -26.035156 11.929688 -26.46875 12.078125 -26.8125 C 12.234375 -27.164062 12.3125 -27.34375 12.3125 -27.34375 L 12.3125 -22.15625 Z M 16.296875 -22.15625 "/></g></g></g></g></g><g fill="#225ac6" fill-opacity="1"><g transform="translate(165.409022, 268.388918)"><g><path d="M 14.359375 -14.390625 L 14.359375 0 L 12.859375 0 L 12.859375 -6.640625 L 3.859375 -6.640625 L 3.859375 0 L 2.34375 0 L 2.34375 -14.390625 L 3.859375 -14.390625 L 3.859375 -7.96875 L 12.859375 -7.96875 L 12.859375 -14.390625 Z M 14.359375 -14.390625 "/></g></g></g><g fill="#225ac6" fill-opacity="1"><g transform="translate(184.217008, 268.388918)"><g><path d="M 17.28125 -14.390625 L 17.28125 0 L 15.828125 0 L 15.828125 -11.5 L 10.171875 -1.828125 L 9.453125 -1.828125 L 3.796875 -11.4375 L 3.796875 0 L 2.34375 0 L 2.34375 -14.390625 L 3.59375 -14.390625 L 9.84375 -3.71875 L 16.03125 -14.390625 Z M 17.28125 -14.390625 "/></g></g></g><g fill="#225ac6" fill-opacity="1"><g transform="translate(205.940433, 268.388918)"><g><path d="M 6.3125 0.125 C 5.238281 0.125 4.210938 -0.046875 3.234375 -0.390625 C 2.253906 -0.734375 1.5 -1.1875 0.96875 -1.75 L 1.5625 -2.921875 C 2.082031 -2.398438 2.773438 -1.976562 3.640625 -1.65625 C 4.503906 -1.332031 5.394531 -1.171875 6.3125 -1.171875 C 7.59375 -1.171875 8.554688 -1.40625 9.203125 -1.875 C 9.847656 -2.351562 10.171875 -2.96875 10.171875 -3.71875 C 10.171875 -4.289062 9.992188 -4.75 9.640625 -5.09375 C 9.296875 -5.4375 8.867188 -5.703125 8.359375 -5.890625 C 7.859375 -6.078125 7.15625 -6.28125 6.25 -6.5 C 5.164062 -6.769531 4.300781 -7.03125 3.65625 -7.28125 C 3.007812 -7.53125 2.457031 -7.914062 2 -8.4375 C 1.539062 -8.957031 1.3125 -9.664062 1.3125 -10.5625 C 1.3125 -11.289062 1.503906 -11.953125 1.890625 -12.546875 C 2.273438 -13.140625 2.863281 -13.613281 3.65625 -13.96875 C 4.445312 -14.320312 5.429688 -14.5 6.609375 -14.5 C 7.429688 -14.5 8.238281 -14.382812 9.03125 -14.15625 C 9.820312 -13.9375 10.503906 -13.628906 11.078125 -13.234375 L 10.5625 -12.015625 C 9.957031 -12.410156 9.3125 -12.707031 8.625 -12.90625 C 7.945312 -13.113281 7.273438 -13.21875 6.609375 -13.21875 C 5.347656 -13.21875 4.398438 -12.972656 3.765625 -12.484375 C 3.128906 -11.992188 2.8125 -11.367188 2.8125 -10.609375 C 2.8125 -10.023438 2.984375 -9.554688 3.328125 -9.203125 C 3.679688 -8.859375 4.117188 -8.59375 4.640625 -8.40625 C 5.171875 -8.226562 5.882812 -8.03125 6.78125 -7.8125 C 7.832031 -7.550781 8.679688 -7.289062 9.328125 -7.03125 C 9.984375 -6.78125 10.535156 -6.394531 10.984375 -5.875 C 11.441406 -5.363281 11.671875 -4.671875 11.671875 -3.796875 C 11.671875 -3.078125 11.472656 -2.414062 11.078125 -1.8125 C 10.691406 -1.21875 10.09375 -0.742188 9.28125 -0.390625 C 8.476562 -0.046875 7.488281 0.125 6.3125 0.125 Z M 6.3125 0.125 "/></g></g></g></svg>